PathFileType  4	(X/Y/Z) C:\Users\antoi\Documents\MyRepositories\mobilecap\ResultsAnalysis
DataRate	CameraRate	NumFrames	NumMarkers	Units	OrigDataRate	OrigDataStartFrame	OrigNumFrames
100.0	100.0	6	51	mm	100.0	86	341
Frame#	Time	r_knee			r_shank_antsup			r_ankle			r_calc			r_5meta			r_toe			L_knee			L_shank_antsup			L_ankle			L_calc			L_5meta			L_toe			r_sh2			r_sh3			r_sh4			L_sh2			L_sh3			r_thigh1			r_thigh2			r_thigh3			r_thigh4			r_thigh5			L_thigh1			L_thigh2			L_thigh3			L_thigh4			r.ASIS			r.PSIS			L.ASIS			L.PSIS			C7			R_Shoulder			L_Shoulder			R_Sternum			L_Sternum			R_humerus			R_elbow_med			R_elbow_lat			R_forearm			R_wrist_radius			R_wrist_ulna			L_humerus			L_elbow_med			L_elbow_lat			L_forearm			L_wrist_radius			L_wrist_ulna			R_HJC			L_HJC			R_HJC_reg			L_HJC_reg			
		X1	Y1	Z1	X2	Y2	Z2	X3	Y3	Z3	X4	Y4	Z4	X5	Y5	Z5	X6	Y6	Z6	X7	Y7	Z7	X8	Y8	Z8	X9	Y9	Z9	X10	Y10	Z10	X11	Y11	Z11	X12	Y12	Z12	X13	Y13	Z13	X14	Y14	Z14	X15	Y15	Z15	X16	Y16	Z16	X17	Y17	Z17	X18	Y18	Z18	X19	Y19	Z19	X20	Y20	Z20	X21	Y21	Z21	X22	Y22	Z22	X23	Y23	Z23	X24	Y24	Z24	X25	Y25	Z25	X26	Y26	Z26	X27	Y27	Z27	X28	Y28	Z28	X29	Y29	Z29	X30	Y30	Z30	X31	Y31	Z31	X32	Y32	Z32	X33	Y33	Z33	X34	Y34	Z34	X35	Y35	Z35	X36	Y36	Z36	X37	Y37	Z37	X38	Y38	Z38	X39	Y39	Z39	X40	Y40	Z40	X41	Y41	Z41	X42	Y42	Z42	X43	Y43	Z43	X44	Y44	Z44	X45	Y45	Z45	X46	Y46	Z46	X47	Y47	Z47	X48	Y48	Z48	X49	Y49	Z49	X50	Y50	Z50	X51	Y51	Z51	

86	0.85000000	-1168.06735	805.36070	-422.87731	-1202.71699	761.59501	-394.86409	-1235.50537	404.24752	-455.31936	-1293.43150	366.58996	-510.42388	-1119.38003	345.63854	-412.48919	-1073.94086	367.54412	-463.73614	-1169.94038	803.78555	-742.15395	-1152.31619	716.50173	-750.13142	-1238.22216	404.60011	-705.00801	-1297.96825	366.41586	-654.73667	-1120.23413	351.14469	-734.54354	-1075.72076	369.51439	-679.74323	-1214.83272	646.26890	-392.72393	-1133.74210	757.18843	-430.85004	-1147.10400	643.06195	-443.88794	-1237.24081	737.43686	-763.02351	-1253.25494	616.53917	-757.45224	-1066.36098	1094.18759	-479.04535	-1063.84095	982.68613	-468.02490	-1086.45787	966.57488	-404.48578	-1133.69217	1101.05703	-390.71022	-1134.53838	986.14708	-383.51117	-1113.49679	1124.43273	-758.40669	-1119.56909	983.14156	-769.05300	-1225.63912	1128.43568	-764.30280	-1232.35780	988.62510	-745.27544	-1080.12043	1273.41080	-454.27876	-1268.47241	1317.17030	-534.21625	-1075.88592	1260.08110	-691.60141	-1268.49677	1317.48252	-632.38185	-1172.06872	1785.98663	-591.19513	-1109.64437	1735.68260	-424.78617	-1120.75649	1730.36244	-750.51460	-1080.08456	1673.47173	-571.58212	-1078.35552	1672.28940	-608.26596	-1124.91894	1502.99873	-338.47510	-1185.88384	1399.28942	-371.76647	-1143.48703	1413.36429	-315.60583	-1021.25751	1454.55448	-369.99552	-954.10760	1505.88450	-426.86433	-934.82652	1466.77478	-418.75035	-1153.46240	1505.16081	-836.90370	-1202.55606	1393.16203	-788.61086	-1177.00725	1398.15664	-855.16206	-1037.62357	1426.30460	-811.33166	-952.71772	1469.42935	-759.79374	-942.99817	1425.87545	-763.86462	-1160.08856	1195.84656	-488.96206	-1168.11258	1197.73468	-679.45516	-1152.28364	1199.25209	-487.38333	-1152.32245	1199.75071	-644.28714	
87	0.86000000	-1167.65573	805.20967	-423.08474	-1202.86931	760.89579	-395.26748	-1235.49695	404.21656	-455.32204	-1293.43625	366.65878	-510.51330	-1119.36276	345.64891	-412.48511	-1073.93236	367.54057	-463.74634	-1168.06983	803.37405	-741.48482	-1150.43454	716.01131	-749.89000	-1238.16063	404.59855	-704.94200	-1297.93943	366.43418	-654.67885	-1120.23180	351.14901	-734.52612	-1075.68609	369.54853	-679.75938	-1214.28458	645.58832	-392.95889	-1133.21536	757.02278	-430.83566	-1146.68507	642.95933	-443.91464	-1235.23749	737.51375	-762.52854	-1251.99494	616.59129	-756.95415	-1066.92912	1094.33977	-479.08475	-1064.09423	982.84433	-468.16926	-1086.59762	966.64625	-404.58406	-1134.20360	1100.93367	-390.66013	-1134.72245	986.13975	-383.48821	-1114.05411	1124.34609	-758.50367	-1119.24865	982.98229	-768.97313	-1226.17754	1127.70178	-764.21229	-1232.04103	987.82676	-745.00994	-1080.73947	1273.07268	-454.44290	-1269.10709	1317.55230	-533.87827	-1076.84949	1259.60591	-691.38391	-1269.17583	1317.93997	-632.46307	-1170.64572	1785.94992	-591.30188	-1108.14216	1735.55253	-424.89795	-1119.47703	1730.21613	-750.47154	-1078.89447	1673.20607	-571.59720	-1077.10992	1672.06787	-608.28147	-1123.64672	1502.75659	-338.77591	-1185.41797	1399.60294	-371.32884	-1142.36816	1413.26818	-315.74892	-1020.43811	1453.48493	-371.54386	-953.47696	1504.29515	-429.29525	-934.31156	1465.21693	-420.92230	-1152.13901	1505.07221	-836.83892	-1201.29458	1392.46478	-788.59197	-1175.70589	1398.01623	-855.14008	-1036.42008	1425.93950	-810.87859	-951.59749	1468.67289	-759.04347	-941.78033	1425.17127	-763.50994	-1161.14604	1195.83744	-488.85299	-1169.32808	1197.67525	-679.33983	-1153.25379	1199.14595	-487.49777	-1153.36301	1199.76188	-644.15104	
88	0.87000000	-1167.10878	805.13101	-423.17836	-1202.51905	760.63126	-395.66654	-1235.50449	404.24030	-455.31232	-1293.44649	366.76510	-510.68843	-1119.32354	345.67447	-412.45974	-1073.91938	367.53079	-463.71705	-1165.87945	802.98402	-740.94650	-1148.34143	715.33689	-749.35483	-1238.04600	404.66641	-704.93648	-1297.89265	366.51497	-654.71365	-1120.21742	351.17827	-734.47489	-1075.57546	369.61614	-679.79547	-1213.58578	644.83385	-393.08413	-1132.63059	756.84219	-430.85314	-1146.27774	642.78120	-443.86844	-1233.01307	737.49981	-761.97320	-1250.49666	616.58639	-756.52061	-1067.63979	1094.57244	-479.13033	-1064.44686	983.01334	-468.44602	-1086.80222	966.71309	-404.74136	-1134.82846	1100.84828	-390.68745	-1134.93878	986.14761	-383.42646	-1114.70654	1124.30508	-758.72590	-1118.88264	982.83687	-768.97091	-1226.84773	1126.84138	-764.11371	-1231.78821	986.86933	-744.43608	-1081.49756	1272.75355	-454.54545	-1269.80513	1317.95266	-533.75022	-1077.89030	1259.09072	-691.22847	-1269.94905	1318.32964	-632.53582	-1169.12536	1785.82015	-591.29264	-1106.45247	1735.38400	-424.89594	-1118.07921	1729.97748	-750.46684	-1077.67597	1672.93503	-571.52958	-1075.82783	1671.81316	-608.38328	-1122.25855	1502.53081	-338.80144	-1184.77435	1399.80219	-371.00793	-1141.12571	1413.12841	-315.88066	-1019.37938	1452.11743	-372.87349	-952.52923	1502.08157	-431.64991	-933.49587	1462.98043	-423.01899	-1150.78439	1504.97247	-836.93482	-1199.99060	1391.68629	-788.55882	-1174.40177	1397.83803	-855.11043	-1035.04815	1425.17649	-810.44399	-950.27500	1467.31777	-758.27511	-940.45182	1423.80824	-763.10735	-1162.32289	1195.84459	-488.75539	-1170.60476	1197.56349	-679.23905	-1154.33807	1199.09967	-487.48810	-1154.56623	1199.69722	-643.97578	
89	0.88000000	-1166.47475	805.12569	-423.22871	-1201.85586	760.73021	-395.92588	-1235.47820	404.30919	-455.31300	-1293.42440	366.81276	-510.69153	-1119.27076	345.70623	-412.43001	-1073.90549	367.52495	-463.66363	-1163.51749	802.55578	-740.35202	-1146.03500	714.79602	-748.95261	-1237.75328	405.04412	-705.42366	-1297.80867	366.63954	-654.77484	-1120.19372	351.21045	-734.42990	-1075.46410	369.64035	-679.80447	-1213.30024	645.35550	-393.04697	-1132.00439	756.74270	-430.87594	-1145.83086	642.61172	-443.80826	-1230.56499	737.50815	-761.45478	-1248.79399	616.68764	-756.26004	-1068.41118	1094.84216	-479.14433	-1064.86117	983.17609	-468.82668	-1086.98278	966.80933	-404.93352	-1135.55558	1100.84981	-390.70045	-1135.21493	986.13914	-383.42216	-1115.44599	1124.26400	-759.07069	-1118.50947	982.69631	-768.97008	-1227.65435	1125.87833	-763.98700	-1231.49893	985.76683	-743.78377	-1082.36409	1272.44854	-454.60054	-1270.52488	1318.37576	-533.99679	-1078.98172	1258.62498	-691.36207	-1270.79068	1318.61287	-632.62553	-1167.49949	1785.61156	-591.26419	-1104.60741	1735.14625	-424.93363	-1116.55663	1729.66423	-750.48101	-1076.40990	1672.54352	-571.57365	-1074.50604	1671.51502	-608.52316	-1120.81063	1502.27241	-338.67032	-1183.98636	1399.83746	-371.02392	-1139.86672	1412.89927	-316.05992	-1018.12717	1450.44407	-374.02515	-951.26047	1499.13858	-433.93507	-932.40499	1460.02923	-424.98396	-1149.40130	1504.74915	-837.08619	-1198.66465	1391.13654	-788.44272	-1173.09694	1397.74402	-855.01356	-1033.54779	1424.05875	-810.15124	-948.65659	1465.23611	-757.42725	-938.98375	1421.74458	-762.70332	-1163.55402	1195.85669	-488.80769	-1171.88820	1197.44452	-679.29029	-1155.51907	1199.14995	-487.36594	-1155.94135	1199.52579	-643.90940	
90	0.89000000	-1165.82955	805.00735	-423.46893	-1201.15020	760.69197	-396.18384	-1235.41832	404.34895	-455.33866	-1293.36013	366.74833	-510.42406	-1119.23752	345.70724	-412.43012	-1073.89358	367.53870	-463.64063	-1160.99312	802.05198	-739.69890	-1143.53391	714.37223	-748.72922	-1237.34073	405.59643	-706.19188	-1297.71486	366.76385	-654.78626	-1120.16403	351.22667	-734.42093	-1075.42002	369.59826	-679.76251	-1213.39469	646.69896	-392.97486	-1131.24816	756.66734	-430.84175	-1145.22470	642.50702	-443.83486	-1227.91466	737.54809	-761.03029	-1246.93848	616.91670	-756.10280	-1069.26783	1095.11810	-479.15472	-1065.27701	983.37584	-469.10351	-1087.09477	967.00609	-405.09061	-1136.37098	1100.90895	-390.51883	-1135.55130	986.15727	-383.43089	-1116.32829	1124.12292	-759.34007	-1118.18057	982.47267	-768.84090	-1228.58862	1124.76879	-763.74960	-1231.12152	984.55716	-743.26732	-1083.31539	1272.10304	-454.73329	-1271.35664	1318.78922	-534.31751	-1080.16146	1258.09399	-691.60563	-1271.70448	1318.81671	-632.75487	-1165.80124	1785.35392	-591.32733	-1102.66634	1734.81763	-425.04951	-1114.98457	1729.39648	-750.55397	-1075.10963	1671.99007	-571.75297	-1073.16357	1671.11935	-608.60750	-1119.31126	1501.84704	-338.61734	-1183.17534	1399.76008	-371.09313	-1138.62609	1412.56494	-316.18229	-1016.71741	1448.33100	-375.17047	-949.63951	1495.47732	-436.10879	-931.11667	1456.31233	-426.79820	-1147.97972	1504.41113	-837.20878	-1197.25680	1390.36721	-788.31199	-1171.75743	1397.67220	-854.87530	-1031.97692	1422.57281	-809.94362	-946.82782	1462.42261	-756.53046	-937.37556	1418.99674	-762.41815	-1164.86867	1195.83475	-488.92216	-1173.27537	1197.26359	-679.40281	-1156.84778	1199.22736	-487.31060	-1157.40116	1199.27091	-643.93236	
91	0.90000000	-1165.12153	804.77042	-423.79105	-1200.17912	760.51424	-396.44107	-1235.37855	404.35744	-455.36311	-1293.31188	366.66325	-510.16532	-1119.23480	345.69494	-412.44673	-1073.89025	367.56468	-463.64840	-1158.27300	801.51558	-739.13047	-1140.95682	713.82361	-748.34669	-1237.02432	405.92251	-706.56710	-1297.64444	366.86353	-654.76904	-1120.13363	351.22689	-734.44659	-1075.41346	369.55457	-679.70743	-1213.08440	647.27284	-392.97336	-1130.29927	756.51477	-430.82065	-1144.48602	642.39843	-443.91577	-1225.20644	737.52042	-760.66798	-1245.03180	617.08573	-755.82955	-1070.28286	1095.41825	-479.19817	-1065.70023	983.67744	-469.18679	-1087.21656	967.26386	-405.18278	-1137.26200	1100.93635	-390.22969	-1135.87869	986.20257	-383.34258	-1117.38021	1123.80558	-759.27425	-1117.91739	982.09560	-768.59137	-1229.62972	1123.44969	-763.27445	-1230.67500	983.32729	-742.91248	-1084.39585	1271.70570	-455.00636	-1272.31403	1319.15475	-534.39428	-1081.47715	1257.33394	-691.61462	-1272.67236	1318.92973	-632.81593	-1164.06107	1785.01786	-591.40924	-1100.63939	1734.31805	-425.20185	-1113.34588	1729.09624	-750.70522	-1073.77461	1671.34271	-571.95166	-1071.78208	1670.69722	-608.75368	-1117.75513	1501.23980	-338.72051	-1182.39152	1399.72201	-370.70725	-1137.34373	1412.12734	-316.21833	-1015.14522	1445.74688	-376.34869	-947.60662	1491.14260	-438.14068	-929.58787	1451.88392	-428.35563	-1146.50002	1504.04705	-837.25584	-1195.80817	1389.35419	-787.98833	-1170.41395	1397.41083	-854.63949	-1030.39470	1420.74014	-809.72054	-944.81747	1458.91413	-755.60106	-935.65404	1415.59772	-762.41568	-1166.30588	1195.76252	-488.87654	-1174.84852	1196.91306	-679.35292	-1158.34588	1199.31750	-487.35569	-1158.91548	1198.96052	-643.81566	
